<?xml version="1.0" encoding="UTF-8" standalone="no"?>
<!DOCTYPE svg PUBLIC "-//W3C//DTD SVG 1.1//EN"
 "http://www.w3.org/Graphics/SVG/1.1/DTD/svg11.dtd">
<!-- Generated by graphviz version 2.26.3 (20100126.1600)
 -->
<!-- Title: models_diagram Pages: 1 -->
<svg width="5881pt" height="286pt"
 viewBox="0.00 0.00 5881.00 286.00" xmlns="http://www.w3.org/2000/svg" xmlns:xlink="http://www.w3.org/1999/xlink">
<g id="graph1" class="graph" transform="scale(1 1) rotate(0) translate(4 282)">
<title>models_diagram</title>
<polygon fill="white" stroke="white" points="-4,5 -4,-282 5878,-282 5878,5 -4,5"/>
<!-- _diagram_info -->
<g id="node1" class="node"><title>_diagram_info</title>
<text text-anchor="start" x="8" y="-261.8" font-family="Times Roman,serif" font-size="13.00">Models diagram</text>
<text text-anchor="start" x="8" y="-244.8" font-family="Times Roman,serif" font-size="13.00">Date: Dec 06 2011 &#45; 13:52</text>
<text text-anchor="start" x="8" y="-227.8" font-family="Times Roman,serif" font-size="13.00">Migration version: 20111202044407</text>
<text text-anchor="start" x="8" y="-210.8" font-family="Times Roman,serif" font-size="13.00">Generated by RailRoady 1.0.2</text>
<text text-anchor="start" x="8" y="-193.8" font-family="Times Roman,serif" font-size="13.00">http://railroady.prestonlee.com</text>
</g>
<!-- ClientSex -->
<g id="node2" class="node"><title>ClientSex</title>
<ellipse fill="none" stroke="black" cx="326" cy="-231" rx="58.1882" ry="18.3848"/>
<text text-anchor="middle" x="326" y="-227.4" font-family="Times Roman,serif" font-size="14.00">ClientSex</text>
</g>
<!-- BenefitObserver -->
<g id="node3" class="node"><title>BenefitObserver</title>
<polygon fill="none" stroke="black" points="592,-129 464,-129 464,-93 592,-93 592,-129"/>
<text text-anchor="middle" x="528" y="-107.4" font-family="Times Roman,serif" font-size="14.00">BenefitObserver</text>
</g>
<!-- Hospitalization -->
<g id="node4" class="node"><title>Hospitalization</title>
<ellipse fill="none" stroke="black" cx="2367" cy="-111" rx="84.1457" ry="18.3848"/>
<text text-anchor="middle" x="2367" y="-107.4" font-family="Times Roman,serif" font-size="14.00">Hospitalization</text>
</g>
<!-- ProfInspection -->
<g id="node5" class="node"><title>ProfInspection</title>
<ellipse fill="none" stroke="black" cx="698" cy="-111" rx="80.8184" ry="18.3848"/>
<text text-anchor="middle" x="698" y="-107.4" font-family="Times Roman,serif" font-size="14.00">ProfInspection</text>
</g>
<!-- Diagnosi -->
<g id="node35" class="node"><title>Diagnosi</title>
<ellipse fill="none" stroke="black" cx="698" cy="-19" rx="53.2379" ry="18.3848"/>
<text text-anchor="middle" x="698" y="-15.4" font-family="Times Roman,serif" font-size="14.00">Diagnosi</text>
</g>
<!-- ProfInspection&#45;&gt;Diagnosi -->
<g id="edge4" class="edge"><title>ProfInspection&#45;&gt;Diagnosi</title>
<path fill="none" stroke="black" d="M698,-84.029C698,-72.5994 698,-59.2671 698,-47.6601"/>
<ellipse fill="none" stroke="black" cx="698" cy="-88.3824" rx="4" ry="4"/>
<polygon fill="black" stroke="black" points="698,-47.5899 702.5,-37.5898 698,-42.5899 698,-37.5899 698,-37.5899 698,-37.5899 698,-42.5899 693.5,-37.5899 698,-47.5899 698,-47.5899"/>
<text text-anchor="middle" x="732" y="-61.4" font-family="Times Roman,serif" font-size="14.00">diagnoses</text>
</g>
<!-- SanatoriumNote -->
<g id="node6" class="node"><title>SanatoriumNote</title>
<ellipse fill="none" stroke="black" cx="2561" cy="-111" rx="91.9239" ry="18.3848"/>
<text text-anchor="middle" x="2561" y="-107.4" font-family="Times Roman,serif" font-size="14.00">SanatoriumNote</text>
</g>
<!-- Ref -->
<g id="node7" class="node"><title>Ref</title>
<polygon fill="none" stroke="black" stroke-dasharray="1,5" points="2311,-249 2257,-249 2257,-213 2311,-213 2311,-249"/>
<text text-anchor="middle" x="2284" y="-227.4" font-family="Times Roman,serif" font-size="14.00">Ref</text>
</g>
<!-- HtmHelpNote -->
<g id="node8" class="node"><title>HtmHelpNote</title>
<ellipse fill="none" stroke="black" cx="957" cy="-111" rx="77.7817" ry="18.3848"/>
<text text-anchor="middle" x="957" y="-107.4" font-family="Times Roman,serif" font-size="14.00">HtmHelpNote</text>
</g>
<!-- Mse -->
<g id="node9" class="node"><title>Mse</title>
<ellipse fill="none" stroke="black" cx="1084" cy="-111" rx="31.1127" ry="18.3848"/>
<text text-anchor="middle" x="1084" y="-107.4" font-family="Times Roman,serif" font-size="14.00">Mse</text>
</g>
<!-- Ref::LabTestType -->
<g id="node10" class="node"><title>Ref::LabTestType</title>
<ellipse fill="none" stroke="black" cx="2861" cy="-231" rx="92.1303" ry="18.3848"/>
<text text-anchor="middle" x="2861" y="-227.4" font-family="Times Roman,serif" font-size="14.00">Ref::LabTestType</text>
</g>
<!-- Ref::LabTest -->
<g id="node37" class="node"><title>Ref::LabTest</title>
<ellipse fill="none" stroke="black" cx="2741" cy="-111" rx="70.0036" ry="18.3848"/>
<text text-anchor="middle" x="2741" y="-107.4" font-family="Times Roman,serif" font-size="14.00">Ref::LabTest</text>
</g>
<!-- Ref::LabTestType&#45;&gt;Ref::LabTest -->
<g id="edge6" class="edge"><title>Ref::LabTestType&#45;&gt;Ref::LabTest</title>
<path fill="none" stroke="black" d="M2811.36,-210.724C2791.16,-200.161 2769.26,-185.348 2755,-166 2749.35,-158.335 2745.97,-148.619 2743.96,-139.494"/>
<ellipse fill="none" stroke="black" cx="2815.14" cy="-212.625" rx="4.00002" ry="4.00002"/>
<polygon fill="black" stroke="black" points="2743.94,-139.431 2746.64,-128.801 2743.08,-134.507 2742.21,-129.583 2742.21,-129.583 2742.21,-129.583 2743.08,-134.507 2737.78,-130.365 2743.94,-139.431 2743.94,-139.431"/>
</g>
<!-- ActsAsTaggableOn::Tagging -->
<g id="node39" class="node"><title>ActsAsTaggableOn::Tagging</title>
<ellipse fill="none" stroke="black" cx="3452" cy="-111" rx="144.25" ry="18.3848"/>
<text text-anchor="middle" x="3452" y="-107.4" font-family="Times Roman,serif" font-size="14.00">ActsAsTaggableOn::Tagging</text>
</g>
<!-- Ref::LabTestType&#45;&gt;ActsAsTaggableOn::Tagging -->
<g id="edge8" class="edge"><title>Ref::LabTestType&#45;&gt;ActsAsTaggableOn::Tagging</title>
<path fill="none" stroke="black" d="M2886.88,-207.14C2912.95,-183.221 2949.9,-149.687 2954,-148 3024.99,-118.785 3222.53,-136.735 3299,-130 3313.08,-128.76 3327.86,-127.223 3342.46,-125.564"/>
<ellipse fill="none" stroke="black" cx="2883.78" cy="-209.981" rx="4.00002" ry="4.00002"/>
<polygon fill="black" stroke="black" points="3342.59,-125.549 3353.04,-128.869 3347.56,-124.974 3352.52,-124.398 3352.52,-124.398 3352.52,-124.398 3347.56,-124.974 3352.01,-119.928 3342.59,-125.549 3342.59,-125.549"/>
<text text-anchor="middle" x="2983.5" y="-153.4" font-family="Times Roman,serif" font-size="14.00">taggings</text>
</g>
<!-- Ref::LabTestType&#45;&gt;ActsAsTaggableOn::Tagging -->
<g id="edge12" class="edge"><title>Ref::LabTestType&#45;&gt;ActsAsTaggableOn::Tagging</title>
<path fill="none" stroke="black" d="M2910.68,-211.548C2940.71,-199.347 2979.54,-182.791 3013,-166 3027.24,-158.855 3028.77,-152.682 3044,-148 3152.6,-114.612 3185.92,-141.005 3299,-130 3312.61,-128.675 3326.89,-127.122 3341.02,-125.485"/>
<ellipse fill="none" stroke="black" cx="2906.95" cy="-213.055" rx="4.00002" ry="4.00002"/>
<polygon fill="black" stroke="black" points="3341.34,-125.448 3351.79,-128.75 3346.3,-124.864 3351.27,-124.28 3351.27,-124.28 3351.27,-124.28 3346.3,-124.864 3350.74,-119.811 3341.34,-125.448 3341.34,-125.448"/>
<text text-anchor="middle" x="3105.5" y="-153.4" font-family="Times Roman,serif" font-size="14.00">clin_min_taggings</text>
</g>
<!-- ActsAsTaggableOn::Tag -->
<g id="node41" class="node"><title>ActsAsTaggableOn::Tag</title>
<ellipse fill="none" stroke="black" cx="3167" cy="-111" rx="123.243" ry="18.3848"/>
<text text-anchor="middle" x="3167" y="-107.4" font-family="Times Roman,serif" font-size="14.00">ActsAsTaggableOn::Tag</text>
</g>
<!-- Ref::LabTestType&#45;&gt;ActsAsTaggableOn::Tag -->
<g id="edge10" class="edge"><title>Ref::LabTestType&#45;&gt;ActsAsTaggableOn::Tag</title>
<path fill="none" stroke="black" d="M2852.72,-202.444C2849.44,-184.636 2849.05,-162.439 2862,-148 2874.38,-134.196 2963.3,-124.471 3041.95,-118.467"/>
<polygon fill="black" stroke="black" points="2852.75,-202.565 2850.52,-213.302 2853.83,-207.447 2854.91,-212.329 2854.91,-212.329 2854.91,-212.329 2853.83,-207.447 2859.3,-211.357 2852.75,-202.565 2852.75,-202.565"/>
<polygon fill="black" stroke="black" points="3042.01,-118.463 3052.32,-122.205 3047,-118.09 3051.98,-117.717 3051.98,-117.717 3051.98,-117.717 3047,-118.09 3051.65,-113.23 3042.01,-118.463 3042.01,-118.463"/>
<text text-anchor="middle" x="2896.5" y="-153.4" font-family="Times Roman,serif" font-size="14.00">base_tags</text>
</g>
<!-- Ref::LabTestType&#45;&gt;ActsAsTaggableOn::Tag -->
<g id="edge14" class="edge"><title>Ref::LabTestType&#45;&gt;ActsAsTaggableOn::Tag</title>
<path fill="none" stroke="black" d="M2817.84,-208.327C2791.6,-191.67 2766.42,-168.47 2785,-148 2801.94,-129.335 2932.35,-119.808 3036.15,-115.137"/>
<polygon fill="black" stroke="black" points="2818.17,-208.526 2824.38,-217.559 2822.44,-211.119 2826.72,-213.712 2826.72,-213.712 2826.72,-213.712 2822.44,-211.119 2829.05,-209.864 2818.17,-208.526 2818.17,-208.526"/>
<polygon fill="black" stroke="black" points="3036.44,-115.125 3046.62,-119.182 3041.43,-114.906 3046.43,-114.687 3046.43,-114.687 3046.43,-114.687 3041.43,-114.906 3046.23,-110.191 3036.44,-115.125 3036.44,-115.125"/>
<text text-anchor="middle" x="2817" y="-153.4" font-family="Times Roman,serif" font-size="14.00">clin_mins</text>
</g>
<!-- Ref::HospitalizationType -->
<g id="node11" class="node"><title>Ref::HospitalizationType</title>
<ellipse fill="none" stroke="black" cx="4077" cy="-231" rx="127.986" ry="18.3848"/>
<text text-anchor="middle" x="4077" y="-227.4" font-family="Times Roman,serif" font-size="14.00">Ref::HospitalizationType</text>
</g>
<!-- Ref::Hospitalization -->
<g id="node45" class="node"><title>Ref::Hospitalization</title>
<ellipse fill="none" stroke="black" cx="4077" cy="-111" rx="104.86" ry="18.3848"/>
<text text-anchor="middle" x="4077" y="-107.4" font-family="Times Roman,serif" font-size="14.00">Ref::Hospitalization</text>
</g>
<!-- Ref::HospitalizationType&#45;&gt;Ref::Hospitalization -->
<g id="edge16" class="edge"><title>Ref::HospitalizationType&#45;&gt;Ref::Hospitalization</title>
<path fill="none" stroke="black" d="M4077,-204.053C4077,-184.923 4077,-159.278 4077,-139.755"/>
<ellipse fill="none" stroke="black" cx="4077" cy="-208.25" rx="4" ry="4"/>
<polygon fill="black" stroke="black" points="4077,-139.618 4081.5,-129.618 4077,-134.618 4077,-129.618 4077,-129.618 4077,-129.618 4077,-134.618 4072.5,-129.618 4077,-139.618 4077,-139.618"/>
</g>
<!-- Ref::MkbType -->
<g id="node12" class="node"><title>Ref::MkbType</title>
<ellipse fill="none" stroke="black" cx="3280" cy="-231" rx="75.1594" ry="18.3848"/>
<text text-anchor="middle" x="3280" y="-227.4" font-family="Times Roman,serif" font-size="14.00">Ref::MkbType</text>
</g>
<!-- Ref::MkbType&#45;&gt;ActsAsTaggableOn::Tagging -->
<g id="edge22" class="edge"><title>Ref::MkbType&#45;&gt;ActsAsTaggableOn::Tagging</title>
<path fill="none" stroke="black" d="M3287.59,-204.374C3294.13,-186.029 3305.36,-162.443 3323,-148 3330.9,-141.531 3348.52,-135.154 3368.27,-129.565"/>
<ellipse fill="none" stroke="black" cx="3286.18" cy="-208.59" rx="4.00001" ry="4.00001"/>
<polygon fill="black" stroke="black" points="3368.45,-129.514 3379.28,-131.229 3373.27,-128.201 3378.1,-126.887 3378.1,-126.887 3378.1,-126.887 3373.27,-128.201 3376.92,-122.545 3368.45,-129.514 3368.45,-129.514"/>
<text text-anchor="middle" x="3367.5" y="-153.4" font-family="Times Roman,serif" font-size="14.00">tag_taggings</text>
</g>
<!-- Ref::MkbType&#45;&gt;ActsAsTaggableOn::Tagging -->
<g id="edge18" class="edge"><title>Ref::MkbType&#45;&gt;ActsAsTaggableOn::Tagging</title>
<path fill="none" stroke="black" d="M3333.65,-213.24C3360.45,-202.519 3392.15,-186.853 3416,-166 3424.72,-158.371 3432.19,-148.141 3438.03,-138.573"/>
<ellipse fill="none" stroke="black" cx="3329.6" cy="-214.819" rx="4.00001" ry="4.00001"/>
<polygon fill="black" stroke="black" points="3438.13,-138.384 3447.01,-131.947 3440.62,-134.047 3443.11,-129.709 3443.11,-129.709 3443.11,-129.709 3440.62,-134.047 3439.2,-127.471 3438.13,-138.384 3438.13,-138.384"/>
<text text-anchor="middle" x="3461.5" y="-153.4" font-family="Times Roman,serif" font-size="14.00">taggings</text>
</g>
<!-- Ref::MkbType&#45;&gt;ActsAsTaggableOn::Tag -->
<g id="edge24" class="edge"><title>Ref::MkbType&#45;&gt;ActsAsTaggableOn::Tag</title>
<path fill="none" stroke="black" d="M3231.31,-210.43C3211.91,-199.873 3191.11,-185.145 3178,-166 3172.78,-158.377 3169.92,-148.85 3168.38,-139.878"/>
<polygon fill="black" stroke="black" points="3231.51,-210.533 3238.32,-219.128 3235.95,-212.833 3240.39,-215.133 3240.39,-215.133 3240.39,-215.133 3235.95,-212.833 3242.46,-211.137 3231.51,-210.533 3231.51,-210.533"/>
<polygon fill="black" stroke="black" points="3168.36,-139.671 3171.6,-129.194 3167.74,-134.709 3167.13,-129.746 3167.13,-129.746 3167.13,-129.746 3167.74,-134.709 3162.66,-130.299 3168.36,-139.671 3168.36,-139.671"/>
<text text-anchor="middle" x="3193" y="-153.4" font-family="Times Roman,serif" font-size="14.00">tags</text>
</g>
<!-- Ref::MkbType&#45;&gt;ActsAsTaggableOn::Tag -->
<g id="edge20" class="edge"><title>Ref::MkbType&#45;&gt;ActsAsTaggableOn::Tag</title>
<path fill="none" stroke="black" d="M3260.32,-204.337C3247.36,-187.479 3229.6,-165.626 3212,-148 3207.98,-143.974 3203.55,-139.93 3199.1,-136.072"/>
<polygon fill="black" stroke="black" points="3260.58,-204.685 3263.04,-215.37 3263.6,-208.667 3266.63,-212.649 3266.63,-212.649 3266.63,-212.649 3263.6,-208.667 3270.21,-209.927 3260.58,-204.685 3260.58,-204.685"/>
<polygon fill="black" stroke="black" points="3198.77,-135.8 3194.01,-125.923 3194.94,-132.585 3191.11,-129.37 3191.11,-129.37 3191.11,-129.37 3194.94,-132.585 3188.22,-132.816 3198.77,-135.8 3198.77,-135.8"/>
<text text-anchor="middle" x="3263.5" y="-153.4" font-family="Times Roman,serif" font-size="14.00">base_tags</text>
</g>
<!-- Ref::InsCompany -->
<g id="node13" class="node"><title>Ref::InsCompany</title>
<ellipse fill="none" stroke="black" cx="4315" cy="-231" rx="92.1303" ry="18.3848"/>
<text text-anchor="middle" x="4315" y="-227.4" font-family="Times Roman,serif" font-size="14.00">Ref::InsCompany</text>
</g>
<!-- Ref::Client -->
<g id="node51" class="node"><title>Ref::Client</title>
<ellipse fill="none" stroke="black" cx="4419" cy="-111" rx="61.0181" ry="18.3848"/>
<text text-anchor="middle" x="4419" y="-107.4" font-family="Times Roman,serif" font-size="14.00">Ref::Client</text>
</g>
<!-- Ref::InsCompany&#45;&gt;Ref::Client -->
<g id="edge26" class="edge"><title>Ref::InsCompany&#45;&gt;Ref::Client</title>
<path fill="none" stroke="black" d="M4336.15,-206.596C4353.75,-186.285 4378.74,-157.451 4396.67,-136.77"/>
<ellipse fill="none" stroke="black" cx="4333.42" cy="-209.752" rx="4.00002" ry="4.00002"/>
<polygon fill="black" stroke="black" points="4396.85,-136.561 4406.8,-131.951 4400.12,-132.782 4403.4,-129.004 4403.4,-129.004 4403.4,-129.004 4400.12,-132.782 4400,-126.057 4396.85,-136.561 4396.85,-136.561"/>
</g>
<!-- Ref::Sanatorium -->
<g id="node14" class="node"><title>Ref::Sanatorium</title>
<ellipse fill="none" stroke="black" cx="4729" cy="-231" rx="89.8026" ry="18.3848"/>
<text text-anchor="middle" x="4729" y="-227.4" font-family="Times Roman,serif" font-size="14.00">Ref::Sanatorium</text>
</g>
<!-- Ref::DeathReason -->
<g id="node15" class="node"><title>Ref::DeathReason</title>
<ellipse fill="none" stroke="black" cx="4523" cy="-231" rx="97.7889" ry="18.3848"/>
<text text-anchor="middle" x="4523" y="-227.4" font-family="Times Roman,serif" font-size="14.00">Ref::DeathReason</text>
</g>
<!-- Ref::DeathReason&#45;&gt;Ref::Client -->
<g id="edge28" class="edge"><title>Ref::DeathReason&#45;&gt;Ref::Client</title>
<path fill="none" stroke="black" d="M4501.61,-206.322C4483.99,-185.989 4459.08,-157.249 4441.23,-136.653"/>
<ellipse fill="none" stroke="black" cx="4504.36" cy="-209.49" rx="4.00002" ry="4.00002"/>
<polygon fill="black" stroke="black" points="4441.08,-136.477 4437.93,-125.972 4437.81,-132.698 4434.53,-128.92 4434.53,-128.92 4434.53,-128.92 4437.81,-132.698 4431.13,-131.867 4441.08,-136.477 4441.08,-136.477"/>
</g>
<!-- Ref::DiagnosticTestType -->
<g id="node16" class="node"><title>Ref::DiagnosticTestType</title>
<ellipse fill="none" stroke="black" cx="3665" cy="-231" rx="125.865" ry="18.3848"/>
<text text-anchor="middle" x="3665" y="-227.4" font-family="Times Roman,serif" font-size="14.00">Ref::DiagnosticTestType</text>
</g>
<!-- Ref::DiagnosticTestType&#45;&gt;ActsAsTaggableOn::Tagging -->
<g id="edge32" class="edge"><title>Ref::DiagnosticTestType&#45;&gt;ActsAsTaggableOn::Tagging</title>
<path fill="none" stroke="black" d="M3664.95,-204.286C3663.43,-185.899 3658.3,-162.298 3643,-148 3631.84,-137.57 3604.72,-129.891 3574.31,-124.321"/>
<ellipse fill="none" stroke="black" cx="3665.19" cy="-208.322" rx="4" ry="4"/>
<polygon fill="black" stroke="black" points="3574.19,-124.3 3565.1,-118.153 3569.26,-123.443 3564.33,-122.586 3564.33,-122.586 3564.33,-122.586 3569.26,-123.443 3563.56,-127.019 3574.19,-124.3 3574.19,-124.3"/>
<text text-anchor="middle" x="3685.5" y="-153.4" font-family="Times Roman,serif" font-size="14.00">taggings</text>
</g>
<!-- Ref::DiagnosticTestType&#45;&gt;ActsAsTaggableOn::Tagging -->
<g id="edge36" class="edge"><title>Ref::DiagnosticTestType&#45;&gt;ActsAsTaggableOn::Tagging</title>
<path fill="none" stroke="black" d="M3696.89,-207.441C3716.52,-190.121 3735.1,-166.482 3719,-148 3709.5,-137.093 3646.9,-128.091 3584.71,-121.698"/>
<ellipse fill="none" stroke="black" cx="3693.58" cy="-210.244" rx="4.00002" ry="4.00002"/>
<polygon fill="black" stroke="black" points="3584.69,-121.696 3575.19,-116.217 3579.71,-121.195 3574.74,-120.694 3574.74,-120.694 3574.74,-120.694 3579.71,-121.195 3574.28,-125.172 3584.69,-121.696 3584.69,-121.696"/>
<text text-anchor="middle" x="3770.5" y="-153.4" font-family="Times Roman,serif" font-size="14.00">tag_taggings</text>
</g>
<!-- Ref::DiagnosticTestType&#45;&gt;ActsAsTaggableOn::Tag -->
<g id="edge34" class="edge"><title>Ref::DiagnosticTestType&#45;&gt;ActsAsTaggableOn::Tag</title>
<path fill="none" stroke="black" d="M3611.65,-209.659C3584,-197.922 3550.04,-182.429 3521,-166 3508.77,-159.08 3508.21,-152.8 3495,-148 3412.78,-118.122 3385.88,-140.235 3299,-130 3287.59,-128.656 3275.65,-127.12 3263.81,-125.516"/>
<polygon fill="black" stroke="black" points="3611.92,-209.775 3619.4,-217.798 3616.53,-211.712 3621.14,-213.649 3621.14,-213.649 3621.14,-213.649 3616.53,-211.712 3622.89,-209.501 3611.92,-209.775 3611.92,-209.775"/>
<polygon fill="black" stroke="black" points="3263.8,-125.515 3254.51,-119.697 3258.85,-124.835 3253.9,-124.155 3253.9,-124.155 3253.9,-124.155 3258.85,-124.835 3253.28,-128.613 3263.8,-125.515 3263.8,-125.515"/>
<text text-anchor="middle" x="3555.5" y="-153.4" font-family="Times Roman,serif" font-size="14.00">base_tags</text>
</g>
<!-- Ref::DiagnosticTestType&#45;&gt;ActsAsTaggableOn::Tag -->
<g id="edge38" class="edge"><title>Ref::DiagnosticTestType&#45;&gt;ActsAsTaggableOn::Tag</title>
<path fill="none" stroke="black" d="M3642.94,-204.645C3623.37,-181.599 3596.85,-151.298 3590,-148 3531.63,-119.884 3363.45,-136.621 3299,-130 3287.21,-128.789 3274.87,-127.303 3262.65,-125.701"/>
<polygon fill="black" stroke="black" points="3643.07,-204.801 3646.09,-215.343 3646.3,-208.619 3649.53,-212.438 3649.53,-212.438 3649.53,-212.438 3646.3,-208.619 3652.96,-209.532 3643.07,-204.801 3643.07,-204.801"/>
<polygon fill="black" stroke="black" points="3262.35,-125.66 3253.04,-119.871 3257.39,-124.995 3252.44,-124.331 3252.44,-124.331 3252.44,-124.331 3257.39,-124.995 3251.84,-128.791 3262.35,-125.66 3262.35,-125.66"/>
<text text-anchor="middle" x="3623" y="-153.4" font-family="Times Roman,serif" font-size="14.00">tags</text>
</g>
<!-- Ref::DiagnosticTest -->
<g id="node54" class="node"><title>Ref::DiagnosticTest</title>
<ellipse fill="none" stroke="black" cx="3851" cy="-111" rx="103.238" ry="18.3848"/>
<text text-anchor="middle" x="3851" y="-107.4" font-family="Times Roman,serif" font-size="14.00">Ref::DiagnosticTest</text>
</g>
<!-- Ref::DiagnosticTestType&#45;&gt;Ref::DiagnosticTest -->
<g id="edge30" class="edge"><title>Ref::DiagnosticTestType&#45;&gt;Ref::DiagnosticTest</title>
<path fill="none" stroke="black" d="M3755.43,-214.405C3785.08,-204.805 3815.81,-189.706 3837,-166 3843.44,-158.794 3847,-149.036 3848.94,-139.739"/>
<ellipse fill="none" stroke="black" cx="3751.34" cy="-215.669" rx="4.00001" ry="4.00001"/>
<polygon fill="black" stroke="black" points="3848.98,-139.481 3854.96,-130.289 3849.75,-134.54 3850.51,-129.599 3850.51,-129.599 3850.51,-129.599 3849.75,-134.54 3846.07,-128.91 3848.98,-139.481 3848.98,-139.481"/>
</g>
<!-- Ref::LabClinMin -->
<g id="node17" class="node"><title>Ref::LabClinMin</title>
<ellipse fill="none" stroke="black" cx="4923" cy="-231" rx="85.7684" ry="18.3848"/>
<text text-anchor="middle" x="4923" y="-227.4" font-family="Times Roman,serif" font-size="14.00">Ref::LabClinMin</text>
</g>
<!-- Ref::MedDiagnosticTestType -->
<g id="node18" class="node"><title>Ref::MedDiagnosticTestType</title>
<ellipse fill="none" stroke="black" cx="5172" cy="-231" rx="145.163" ry="18.3848"/>
<text text-anchor="middle" x="5172" y="-227.4" font-family="Times Roman,serif" font-size="14.00">Ref::MedDiagnosticTestType</text>
</g>
<!-- Ref::MedDiagnosticTest -->
<g id="node60" class="node"><title>Ref::MedDiagnosticTest</title>
<ellipse fill="none" stroke="black" cx="5172" cy="-111" rx="123.243" ry="18.3848"/>
<text text-anchor="middle" x="5172" y="-107.4" font-family="Times Roman,serif" font-size="14.00">Ref::MedDiagnosticTest</text>
</g>
<!-- Ref::MedDiagnosticTestType&#45;&gt;Ref::MedDiagnosticTest -->
<g id="edge40" class="edge"><title>Ref::MedDiagnosticTestType&#45;&gt;Ref::MedDiagnosticTest</title>
<path fill="none" stroke="black" d="M5172,-204.053C5172,-184.923 5172,-159.278 5172,-139.755"/>
<ellipse fill="none" stroke="black" cx="5172" cy="-208.25" rx="4" ry="4"/>
<polygon fill="black" stroke="black" points="5172,-139.618 5176.5,-129.618 5172,-134.618 5172,-129.618 5172,-129.618 5172,-129.618 5172,-134.618 5167.5,-129.618 5172,-139.618 5172,-139.618"/>
</g>
<!-- Ref::BenefitCategory -->
<g id="node19" class="node"><title>Ref::BenefitCategory</title>
<ellipse fill="none" stroke="black" cx="1621" cy="-111" rx="111.93" ry="18.3848"/>
<text text-anchor="middle" x="1621" y="-107.4" font-family="Times Roman,serif" font-size="14.00">Ref::BenefitCategory</text>
</g>
<!-- Ref::User -->
<g id="node62" class="node"><title>Ref::User</title>
<ellipse fill="none" stroke="black" cx="1327" cy="-19" rx="55.1543" ry="18.3848"/>
<text text-anchor="middle" x="1327" y="-15.4" font-family="Times Roman,serif" font-size="14.00">Ref::User</text>
</g>
<!-- Ref::BenefitCategory&#45;&gt;Ref::User -->
<g id="edge42" class="edge"><title>Ref::BenefitCategory&#45;&gt;Ref::User</title>
<path fill="none" stroke="black" d="M1560.47,-92.0598C1506.29,-75.1042 1427.78,-50.5379 1377.06,-34.6657"/>
<ellipse fill="none" stroke="black" cx="1564.62" cy="-93.3576" rx="4.00001" ry="4.00001"/>
<polygon fill="black" stroke="black" points="1376.85,-34.5986 1368.65,-27.3174 1372.08,-33.1053 1367.3,-31.6121 1367.3,-31.6121 1367.3,-31.6121 1372.08,-33.1053 1365.96,-35.9067 1376.85,-34.5986 1376.85,-34.5986"/>
</g>
<!-- Ref::DoctorType -->
<g id="node20" class="node"><title>Ref::DoctorType</title>
<ellipse fill="none" stroke="black" cx="1221" cy="-111" rx="87.889" ry="18.3848"/>
<text text-anchor="middle" x="1221" y="-107.4" font-family="Times Roman,serif" font-size="14.00">Ref::DoctorType</text>
</g>
<!-- Ref::DoctorType&#45;&gt;Ref::User -->
<g id="edge44" class="edge"><title>Ref::DoctorType&#45;&gt;Ref::User</title>
<path fill="none" stroke="black" d="M1248.41,-87.2134C1263.96,-73.7156 1283.38,-56.8598 1299.02,-43.2812"/>
<ellipse fill="none" stroke="black" cx="1244.96" cy="-90.2019" rx="4.00002" ry="4.00002"/>
<polygon fill="black" stroke="black" points="1299.27,-43.069 1309.77,-39.9128 1303.04,-39.7916 1306.82,-36.5143 1306.82,-36.5143 1306.82,-36.5143 1303.04,-39.7916 1303.87,-33.1158 1299.27,-43.069 1299.27,-43.069"/>
</g>
<!-- Ref::DeseaseType -->
<g id="node21" class="node"><title>Ref::DeseaseType</title>
<ellipse fill="none" stroke="black" cx="5431" cy="-231" rx="96.1665" ry="18.3848"/>
<text text-anchor="middle" x="5431" y="-227.4" font-family="Times Roman,serif" font-size="14.00">Ref::DeseaseType</text>
</g>
<!-- Ref::HtmHelpType -->
<g id="node22" class="node"><title>Ref::HtmHelpType</title>
<ellipse fill="none" stroke="black" cx="5642" cy="-231" rx="97.0803" ry="18.3848"/>
<text text-anchor="middle" x="5642" y="-227.4" font-family="Times Roman,serif" font-size="14.00">Ref::HtmHelpType</text>
</g>
<!-- Ref::HtmHelpNote -->
<g id="node65" class="node"><title>Ref::HtmHelpNote</title>
<ellipse fill="none" stroke="black" cx="5642" cy="-111" rx="98.9949" ry="18.3848"/>
<text text-anchor="middle" x="5642" y="-107.4" font-family="Times Roman,serif" font-size="14.00">Ref::HtmHelpNote</text>
</g>
<!-- Ref::HtmHelpType&#45;&gt;Ref::HtmHelpNote -->
<g id="edge46" class="edge"><title>Ref::HtmHelpType&#45;&gt;Ref::HtmHelpNote</title>
<path fill="none" stroke="black" d="M5642,-204.053C5642,-184.923 5642,-159.278 5642,-139.755"/>
<ellipse fill="none" stroke="black" cx="5642" cy="-208.25" rx="4" ry="4"/>
<polygon fill="black" stroke="black" points="5642,-139.618 5646.5,-129.618 5642,-134.618 5642,-129.618 5642,-129.618 5642,-129.618 5642,-134.618 5637.5,-129.618 5642,-139.618 5642,-139.618"/>
</g>
<!-- Diagnosis -->
<g id="node23" class="node"><title>Diagnosis</title>
<ellipse fill="none" stroke="black" cx="5815" cy="-231" rx="58.1882" ry="18.3848"/>
<text text-anchor="middle" x="5815" y="-227.4" font-family="Times Roman,serif" font-size="14.00">Diagnosis</text>
</g>
<!-- Mkb -->
<g id="node24" class="node"><title>Mkb</title>
<ellipse fill="none" stroke="black" cx="829" cy="-111" rx="31.8198" ry="18.3848"/>
<text text-anchor="middle" x="829" y="-107.4" font-family="Times Roman,serif" font-size="14.00">Mkb</text>
</g>
<!-- Client -->
<g id="node25" class="node"><title>Client</title>
<ellipse fill="none" stroke="black" cx="1759" cy="-231" rx="39.8075" ry="18.3848"/>
<text text-anchor="middle" x="1759" y="-227.4" font-family="Times Roman,serif" font-size="14.00">Client</text>
</g>
<!-- Client&#45;&gt;Hospitalization -->
<g id="edge52" class="edge"><title>Client&#45;&gt;Hospitalization</title>
<path fill="none" stroke="black" d="M1804.23,-222.253C1893.89,-204.887 2100.51,-164.733 2274,-130 2281,-128.599 2288.29,-127.128 2295.58,-125.651"/>
<ellipse fill="none" stroke="black" cx="1800.11" cy="-223.052" rx="4.00001" ry="4.00001"/>
<polygon fill="black" stroke="black" points="2295.68,-125.63 2306.38,-128.049 2300.58,-124.634 2305.48,-123.639 2305.48,-123.639 2305.48,-123.639 2300.58,-124.634 2304.59,-119.229 2295.68,-125.63 2295.68,-125.63"/>
</g>
<!-- Client&#45;&gt;ProfInspection -->
<g id="edge60" class="edge"><title>Client&#45;&gt;ProfInspection</title>
<path fill="none" stroke="black" d="M1710.74,-229.579C1583.93,-225.323 1231.1,-210.124 941,-166 878.99,-156.568 809.261,-140.174 760.455,-127.732"/>
<ellipse fill="none" stroke="black" cx="1714.76" cy="-229.711" rx="4" ry="4"/>
<polygon fill="black" stroke="black" points="760.361,-127.708 751.795,-120.862 755.518,-126.464 750.675,-125.22 750.675,-125.22 750.675,-125.22 755.518,-126.464 749.556,-129.579 760.361,-127.708 760.361,-127.708"/>
</g>
<!-- Client&#45;&gt;SanatoriumNote -->
<g id="edge56" class="edge"><title>Client&#45;&gt;SanatoriumNote</title>
<path fill="none" stroke="black" d="M1805.98,-224.939C1918.91,-210.215 2214.45,-170.766 2460,-130 2468.01,-128.67 2476.36,-127.213 2484.68,-125.716"/>
<ellipse fill="none" stroke="black" cx="1801.81" cy="-225.481" rx="4.00001" ry="4.00001"/>
<polygon fill="black" stroke="black" points="2484.95,-125.667 2495.6,-128.302 2489.87,-124.771 2494.79,-123.875 2494.79,-123.875 2494.79,-123.875 2489.87,-124.771 2493.98,-119.448 2484.95,-125.667 2484.95,-125.667"/>
</g>
<!-- Client&#45;&gt;HtmHelpNote -->
<g id="edge54" class="edge"><title>Client&#45;&gt;HtmHelpNote</title>
<path fill="none" stroke="black" d="M1711.25,-227.548C1612.71,-219.991 1379.93,-199.9 1187,-166 1129.17,-155.839 1064.18,-139.867 1018.07,-127.747"/>
<ellipse fill="none" stroke="black" cx="1715.25" cy="-227.852" rx="4" ry="4"/>
<polygon fill="black" stroke="black" points="1017.9,-127.703 1009.39,-120.795 1013.07,-126.424 1008.24,-125.146 1008.24,-125.146 1008.24,-125.146 1013.07,-126.424 1007.09,-129.496 1017.9,-127.703 1017.9,-127.703"/>
</g>
<!-- Client&#45;&gt;Mse -->
<g id="edge68" class="edge"><title>Client&#45;&gt;Mse</title>
<path fill="none" stroke="black" d="M1711.03,-228.054C1603.67,-220.456 1336.77,-195.955 1124,-130 1121.56,-129.243 1119.08,-128.362 1116.61,-127.403"/>
<ellipse fill="none" stroke="black" cx="1715.1" cy="-228.337" rx="4" ry="4"/>
<polygon fill="black" stroke="black" points="1116.44,-127.331 1109.01,-119.266 1111.84,-125.368 1107.24,-123.405 1107.24,-123.405 1107.24,-123.405 1111.84,-125.368 1105.47,-127.543 1116.44,-127.331 1116.44,-127.331"/>
</g>
<!-- Client&#45;&gt;Ref::BenefitCategory -->
<g id="edge64" class="edge"><title>Client&#45;&gt;Ref::BenefitCategory</title>
<path fill="none" stroke="black" d="M1731,-208.208C1716.02,-195.88 1697.35,-180.291 1681,-166 1670.06,-156.44 1658.24,-145.689 1648,-136.245"/>
<polygon fill="black" stroke="black" points="1731.17,-208.348 1736.05,-218.171 1735.04,-211.52 1738.9,-214.692 1738.9,-214.692 1738.9,-214.692 1735.04,-211.52 1741.76,-211.213 1731.17,-208.348 1731.17,-208.348"/>
<polygon fill="black" stroke="black" points="1647.85,-136.114 1643.57,-126.018 1644.18,-132.717 1640.52,-129.32 1640.52,-129.32 1640.52,-129.32 1644.18,-132.717 1637.46,-132.622 1647.85,-136.114 1647.85,-136.114"/>
<text text-anchor="middle" x="1744.5" y="-153.4" font-family="Times Roman,serif" font-size="14.00">benefit_categories</text>
</g>
<!-- Client&#45;&gt;Mkb -->
<g id="edge66" class="edge"><title>Client&#45;&gt;Mkb</title>
<path fill="none" stroke="black" d="M1711.07,-227.194C1602.36,-218.357 1328.79,-194.978 1101,-166 997.925,-152.888 969.439,-160.138 870,-130 867.414,-129.216 864.783,-128.3 862.164,-127.3"/>
<ellipse fill="none" stroke="black" cx="1715.24" cy="-227.532" rx="4" ry="4"/>
<polygon fill="black" stroke="black" points="862.069,-127.261 854.577,-119.253 857.456,-125.333 852.842,-123.406 852.842,-123.406 852.842,-123.406 857.456,-125.333 851.107,-127.558 862.069,-127.261 862.069,-127.261"/>
</g>
<!-- DiagnosticTest -->
<g id="node26" class="node"><title>DiagnosticTest</title>
<ellipse fill="none" stroke="black" cx="1409" cy="-111" rx="82.0244" ry="18.3848"/>
<text text-anchor="middle" x="1409" y="-107.4" font-family="Times Roman,serif" font-size="14.00">DiagnosticTest</text>
</g>
<!-- Client&#45;&gt;DiagnosticTest -->
<g id="edge50" class="edge"><title>Client&#45;&gt;DiagnosticTest</title>
<path fill="none" stroke="black" d="M1719.03,-217.295C1656.35,-195.806 1534.82,-154.137 1463.96,-129.843"/>
<ellipse fill="none" stroke="black" cx="1722.92" cy="-218.628" rx="4.00001" ry="4.00001"/>
<polygon fill="black" stroke="black" points="1463.77,-129.777 1455.77,-122.277 1459.04,-128.156 1454.31,-126.534 1454.31,-126.534 1454.31,-126.534 1459.04,-128.156 1452.85,-130.791 1463.77,-129.777 1463.77,-129.777"/>
</g>
<!-- MedDiagnosticTest -->
<g id="node27" class="node"><title>MedDiagnosticTest</title>
<ellipse fill="none" stroke="black" cx="1853" cy="-111" rx="102.03" ry="18.3848"/>
<text text-anchor="middle" x="1853" y="-107.4" font-family="Times Roman,serif" font-size="14.00">MedDiagnosticTest</text>
</g>
<!-- Client&#45;&gt;MedDiagnosticTest -->
<g id="edge58" class="edge"><title>Client&#45;&gt;MedDiagnosticTest</title>
<path fill="none" stroke="black" d="M1777.68,-207.154C1793.36,-187.137 1815.74,-158.56 1832.03,-137.765"/>
<ellipse fill="none" stroke="black" cx="1775.14" cy="-210.402" rx="4.00002" ry="4.00002"/>
<polygon fill="black" stroke="black" points="1832.22,-137.528 1841.93,-132.43 1835.3,-133.591 1838.39,-129.655 1838.39,-129.655 1838.39,-129.655 1835.3,-133.591 1834.84,-126.88 1832.22,-137.528 1832.22,-137.528"/>
</g>
<!-- Benefit -->
<g id="node28" class="node"><title>Benefit</title>
<ellipse fill="none" stroke="black" cx="2019" cy="-111" rx="46.1672" ry="18.3848"/>
<text text-anchor="middle" x="2019" y="-107.4" font-family="Times Roman,serif" font-size="14.00">Benefit</text>
</g>
<!-- Client&#45;&gt;Benefit -->
<g id="edge62" class="edge"><title>Client&#45;&gt;Benefit</title>
<path fill="none" stroke="black" d="M1794.59,-214.573C1842.95,-192.255 1929.13,-152.48 1979.45,-129.253"/>
<ellipse fill="none" stroke="black" cx="1790.95" cy="-216.253" rx="4.00002" ry="4.00002"/>
<polygon fill="black" stroke="black" points="1979.64,-129.168 1990.6,-129.064 1984.17,-127.073 1988.71,-124.978 1988.71,-124.978 1988.71,-124.978 1984.17,-127.073 1986.83,-120.892 1979.64,-129.168 1979.64,-129.168"/>
</g>
<!-- Disp -->
<g id="node29" class="node"><title>Disp</title>
<ellipse fill="none" stroke="black" cx="2116" cy="-111" rx="33.234" ry="18.3848"/>
<text text-anchor="middle" x="2116" y="-107.4" font-family="Times Roman,serif" font-size="14.00">Disp</text>
</g>
<!-- Client&#45;&gt;Disp -->
<g id="edge70" class="edge"><title>Client&#45;&gt;Disp</title>
<path fill="none" stroke="black" d="M1801.35,-219.1C1862.33,-201.587 1978.09,-166.932 2074,-130 2076.35,-129.094 2078.76,-128.124 2081.18,-127.118"/>
<ellipse fill="none" stroke="black" cx="1797.32" cy="-220.253" rx="4.00001" ry="4.00001"/>
<polygon fill="black" stroke="black" points="2081.25,-127.088 2092.21,-127.26 2085.84,-125.108 2090.43,-123.128 2090.43,-123.128 2090.43,-123.128 2085.84,-125.108 2088.65,-118.995 2081.25,-127.088 2081.25,-127.088"/>
</g>
<!-- LabTest -->
<g id="node30" class="node"><title>LabTest</title>
<ellipse fill="none" stroke="black" cx="2216" cy="-111" rx="48.7904" ry="18.3848"/>
<text text-anchor="middle" x="2216" y="-107.4" font-family="Times Roman,serif" font-size="14.00">LabTest</text>
</g>
<!-- Client&#45;&gt;LabTest -->
<g id="edge48" class="edge"><title>Client&#45;&gt;LabTest</title>
<path fill="none" stroke="black" d="M1803.17,-220.872C1877.04,-203.699 2030.14,-167.104 2158,-130 2161.78,-128.902 2165.69,-127.722 2169.61,-126.507"/>
<ellipse fill="none" stroke="black" cx="1798.89" cy="-221.866" rx="4.00001" ry="4.00001"/>
<polygon fill="black" stroke="black" points="2169.76,-126.458 2180.66,-127.732 2174.53,-124.95 2179.3,-123.442 2179.3,-123.442 2179.3,-123.442 2174.53,-124.95 2177.94,-119.151 2169.76,-126.458 2169.76,-126.458"/>
</g>
<!-- User -->
<g id="node31" class="node"><title>User</title>
<ellipse fill="none" stroke="black" cx="745" cy="-231" rx="33.9411" ry="18.3848"/>
<text text-anchor="middle" x="745" y="-227.4" font-family="Times Roman,serif" font-size="14.00">User</text>
</g>
<!-- User&#45;&gt;ProfInspection -->
<g id="edge72" class="edge"><title>User&#45;&gt;ProfInspection</title>
<path fill="none" stroke="black" d="M734.895,-205.2C727.299,-185.807 716.901,-159.257 709.079,-139.286"/>
<ellipse fill="none" stroke="black" cx="736.403" cy="-209.05" rx="4.00001" ry="4.00001"/>
<polygon fill="black" stroke="black" points="709.008,-139.105 709.551,-128.152 707.184,-134.449 705.361,-129.793 705.361,-129.793 705.361,-129.793 707.184,-134.449 701.171,-131.434 709.008,-139.105 709.008,-139.105"/>
</g>
<!-- User&#45;&gt;Mkb -->
<g id="edge74" class="edge"><title>User&#45;&gt;Mkb</title>
<path fill="none" stroke="black" d="M761.984,-206.736C776.199,-186.429 796.429,-157.53 810.937,-136.804"/>
<ellipse fill="none" stroke="black" cx="759.508" cy="-210.274" rx="4.00002" ry="4.00002"/>
<polygon fill="black" stroke="black" points="811.036,-136.662 820.457,-131.051 813.904,-132.566 816.771,-128.47 816.771,-128.47 816.771,-128.47 813.904,-132.566 813.084,-125.889 811.036,-136.662 811.036,-136.662"/>
</g>
<!-- ActiveRecord::Observer -->
<g id="node32" class="node"><title>ActiveRecord::Observer</title>
<ellipse fill="none" stroke="black" cx="528" cy="-231" rx="125.865" ry="18.3848"/>
<text text-anchor="middle" x="528" y="-227.4" font-family="Times Roman,serif" font-size="14.00">ActiveRecord::Observer</text>
</g>
<!-- ActiveRecord::Observer&#45;&gt;BenefitObserver -->
<g id="edge2" class="edge"><title>ActiveRecord::Observer&#45;&gt;BenefitObserver</title>
<path fill="none" stroke="black" d="M528,-212.25C528,-189.574 528,-151.663 528,-129.225"/>
</g>
</g>
</svg>
